<svg width="32" height="32" viewBox="0 0 32 32" fill="none" xmlns="http://www.w3.org/2000/svg">
<rect width="32" height="32" rx="16" fill="white" fill-opacity="0.1"/>
<rect x="0.5" y="0.5" width="31" height="31" rx="15.5" stroke="white" stroke-opacity="0.15"/>
<path d="M16.5 16.125L19.625 18.9375M16.5 16.125L13.375 18.9375M16.5 16.125V13" stroke="#DFE1F4" stroke-width="0.9375"/>
<path d="M20.3697 18.2785C20.6926 18.0928 20.854 18 21.0312 18C21.2085 18 21.3699 18.0928 21.6928 18.2785L22.0884 18.5061C22.4113 18.6918 22.5728 18.7846 22.6614 18.9375C22.75 19.0904 22.75 19.2761 22.75 19.6474V20.1026C22.75 20.4739 22.75 20.6596 22.6614 20.8125C22.5728 20.9654 22.4113 21.0582 22.0884 21.2439L21.6928 21.4715C21.3699 21.6572 21.2085 21.75 21.0312 21.75C20.854 21.75 20.6926 21.6572 20.3697 21.4715L19.9741 21.2439C19.6512 21.0582 19.4897 20.9654 19.4011 20.8125C19.3125 20.6596 19.3125 20.4739 19.3125 20.1026V19.6474C19.3125 19.2761 19.3125 19.0904 19.4011 18.9375C19.4897 18.7846 19.6512 18.6918 19.9741 18.5061L20.3697 18.2785Z" stroke="#DFE1F4" stroke-width="0.9375"/>
<path d="M11.3072 18.2785C11.6301 18.0928 11.7915 18 11.9688 18C12.146 18 12.3074 18.0928 12.6303 18.2785L13.026 18.5061C13.3488 18.6918 13.5102 18.7846 13.5989 18.9375C13.6875 19.0904 13.6875 19.2761 13.6875 19.6474V20.1026C13.6875 20.4739 13.6875 20.6596 13.5989 20.8125C13.5102 20.9654 13.3488 21.0582 13.026 21.2439L12.6303 21.4715C12.3074 21.6572 12.146 21.75 11.9688 21.75C11.7915 21.75 11.6301 21.6572 11.3072 21.4715L10.9116 21.2439C10.5887 21.0582 10.4273 20.9654 10.3386 20.8125C10.25 20.6596 10.25 20.4739 10.25 20.1026V19.6474C10.25 19.2761 10.25 19.0904 10.3386 18.9375C10.4273 18.7846 10.5887 18.6918 10.9116 18.5061L11.3072 18.2785Z" stroke="#DFE1F4" stroke-width="0.9375"/>
<path d="M15.8384 9.52852C16.1613 9.34284 16.3227 9.25 16.5 9.25C16.6773 9.25 16.8387 9.34284 17.1616 9.52852L17.5572 9.75606C17.8801 9.94174 18.0415 10.0346 18.1301 10.1875C18.2188 10.3404 18.2188 10.5261 18.2188 10.8975V11.3525C18.2188 11.7239 18.2188 11.9096 18.1301 12.0625C18.0415 12.2154 17.8801 12.3083 17.5572 12.4939L17.1616 12.7215C16.8387 12.9072 16.6773 13 16.5 13C16.3227 13 16.1613 12.9072 15.8384 12.7215L15.4428 12.4939C15.1199 12.3083 14.9585 12.2154 14.8699 12.0625C14.7813 11.9096 14.7812 11.7239 14.7812 11.3525V10.8975C14.7812 10.5261 14.7813 10.3404 14.8699 10.1875C14.9585 10.0346 15.1199 9.94174 15.4428 9.75606L15.8384 9.52852Z" stroke="#DFE1F4" stroke-width="0.9375"/>
</svg>
